<?xml version="1.0" encoding="UTF-8" standalone="no"?>
<!-- Created with Inkscape (http://www.inkscape.org/) -->

<svg
   width="20mm"
   height="20mm"
   viewBox="0 0 20 20"
   version="1.1"
   id="svg1563"
   xmlns="http://www.w3.org/2000/svg"
   xmlns:svg="http://www.w3.org/2000/svg">
  <defs
     id="defs1560" />
  <g
     id="g1852"
     style="display:inline"
     transform="matrix(0.38064233,0,0,-0.38064233,-64.734049,158.08197)">
    <g
       id="g164"
       transform="translate(217.3546,376.0756)">
      <path
         d="m 0,0 h -42.041 c -1.1,0 -2,0.9 -2,2 v 28.348 c 0,1.1 0.9,2 2,2 H 0 c 1.1,0 2,-0.9 2,-2 V 2 C 2,0.9 1.1,0 0,0 Z"
         style="fill:none;stroke:#f38ba8;stroke-width:2.08529;stroke-linecap:round;stroke-linejoin:round;stroke-miterlimit:10;stroke-dasharray:none;stroke-opacity:1"
         id="path166" />
    </g>
    <path
       d="m 200.348,369.64 h -8.029 v 6.436 h 8.029 z"
       style="fill:none;stroke:#f38ba8;stroke-width:2.08529;stroke-linecap:round;stroke-linejoin:round;stroke-miterlimit:10;stroke-dasharray:none;stroke-opacity:1"
       id="path168" />
    <g
       id="g170"
       transform="translate(186.3595,369.64)">
      <path
         d="M 0,0 H 20"
         style="fill:none;stroke:#f38ba8;stroke-width:2.08529;stroke-linecap:round;stroke-linejoin:round;stroke-miterlimit:10;stroke-dasharray:none;stroke-opacity:1"
         id="path172" />
    </g>
    <g
       id="g174"
       transform="translate(173.35975,381.64)">
      <path
         d="M -3.7499998e-7,0 H 46"
         style="fill:none;stroke:#f38ba8;stroke-width:2.08529;stroke-linecap:round;stroke-linejoin:round;stroke-miterlimit:10;stroke-dasharray:none;stroke-opacity:1"
         id="path176" />
    </g>
    <g
       id="g1520"
       transform="translate(0.05692147)">
      <g
         id="g178"
         transform="translate(201.0076,398.577)">
        <path
           d="m 0,0 5.391,-4.098 c 0.104,-0.08 0.104,-0.278 0,-0.357 L 0,-8.553"
           style="fill:none;stroke:#f38ba8;stroke-width:2.08529;stroke-linecap:round;stroke-linejoin:round;stroke-miterlimit:10;stroke-dasharray:none;stroke-opacity:1"
           id="path180" />
      </g>
      <g
         id="g182"
         transform="translate(191.7339,398.785)">
        <path
           d="m 0,0 -5.57,-3.853 c -0.107,-0.074 -0.116,-0.272 -0.016,-0.356 l 5.203,-4.336"
           style="fill:none;stroke:#f38ba8;stroke-width:2.08529;stroke-linecap:round;stroke-linejoin:round;stroke-miterlimit:10;stroke-dasharray:none;stroke-opacity:1"
           id="path184" />
      </g>
      <g
         id="g186"
         transform="translate(198.4945,400.3144)">
        <path
           d="M 0,0 -4.324,-11.349"
           style="fill:none;stroke:#f38ba8;stroke-width:2.08529;stroke-linecap:round;stroke-linejoin:round;stroke-miterlimit:10;stroke-dasharray:none;stroke-opacity:1"
           id="path188" />
      </g>
    </g>
  </g>
</svg>
