<?xml version="1.0" encoding="UTF-8" standalone="no"?>
<!-- Created with Inkscape (http://www.inkscape.org/) -->

<svg
  width="100.00047mm"
  height="52.371201mm"
  viewBox="0 0 100.00047 52.371201"
  version="1.1"
  id="svg5"
  xmlns="http://www.w3.org/2000/svg"
  xmlns:svg="http://www.w3.org/2000/svg"
>
  <defs id="defs2" />
  <g
    id="layer1-7-0-2-3"
    transform="translate(-93.74984,62.429661)"
    style="display: inline"
  >
    <g
      id="g1454"
      style="display: inline"
      transform="matrix(1.0458659,0,0,1.0458659,89.601566,-77.930717)"
    >
      <circle
        style="
          display: inline;
          fill: #cdd6f4;
          fill-opacity: 1;
          stroke: #ffffff;
          stroke-width: 0;
        "
        id="path1100-9"
        cx="105.02737"
        cy="2.75003"
        transform="rotate(30)"
        r="9.998332"
      />
      <rect
        style="
          display: inline;
          fill: #cdd6f4;
          fill-opacity: 1;
          stroke: #ffffff;
          stroke-width: 0;
        "
        id="rect1444"
        width="19.999998"
        height="54.705997"
        x="120.67954"
        y="-128.86423"
        ry="9.999999"
        transform="rotate(30,-163.37025,-143.72475)"
      />
    </g>
    <g
      id="g1448"
      transform="matrix(1.0458659,0,0,1.0458659,-8.4060153,-13.399091)"
    >
      <path
        id="rect1322"
        style="
          display: inline;
          fill: #cdd6f4;
          fill-opacity: 1;
          stroke: #ffffff;
          stroke-width: 0;
        "
        d="m 149.47751,-45.531886 c -4.79777,-2.76999 -10.89014,-1.137553 -13.66013,3.660218 l -13.75007,23.815812 a 14.999999,14.999999 0 0 1 -20.49027,5.48998 14.999999,14.999999 0 0 1 -3.901176,-3.250637 22.5,22.5 0 0 0 2.740736,7.7606792 22.5,22.5 0 0 0 19.4855,11.2499598 22.5,22.5 0 0 0 19.48556,-11.2500718 l 13.75007,-23.8158122 c 2.76999,-4.797771 1.13754,-10.890138 -3.66022,-13.660128 z"
        transform="translate(1.0416667e-6)"
      />
      <circle
        style="fill: #cdd6f4; fill-opacity: 1; stroke: #ffffff; stroke-width: 0"
        id="path1100"
        cx="81.685448"
        cy="-76.670532"
        r="9.999999"
        transform="rotate(30)"
      />
    </g>
  </g>
</svg>
